{"title":"The Evil of Frankenstein(1964)MPEG-4[DaScubaDude]","uid":14156873,"size":876093454,"categoryP":"video","categoryS":"movies","magnet":"?xt=urn:btih:1294d02ddfba1f54f23ff07ec372c2f07c0ab3f8&amp;dn=The+Evil+of+Frankenstein%281964%29MPEG-4%5BDaScubaDude%5D&amp;tr=udp%3A%2F%2Ftracker.leechers-paradise.org%3A6969&amp;tr=udp%3A%2F%2Fzer0day.ch%3A1337&amp;tr=udp%3A%2F%2Fopen.demonii.com%3A1337&amp;tr=udp%3A%2F%2Ftracker.coppersurfer.tk%3A6969&amp;tr=udp%3A%2F%2Fexodus.desync.com%3A6969","seeders":1,"leechers":0,"uploader":"dascuba","files":1,"time":1459666517,"description":"The Evil of Frankenstein (1964)\r\nUnrated | 1h 24min | Horror | 8 May 1964 (USA)\r\nPenniless, Baron Frankenstein, accompanied by his eager assistant Hans, arrives at his family castle near the town of Karlstaad, vowing to continue his experiments in the creation of life. ... See full summary »\r\nDirector: Freddie Francis\r\nWriter: Anthony Hinds (screenplay) (as John Elder)\r\nStars: Peter Cushing, Peter Woodthorpe, Duncan Lamont |\r\n\r\n\r\n\r\nGeneral\r\nComplete name                            : The Evil of FrankensteinHAMMER_HORROR_Title2.mp4\r\nFormat                                   : MPEG-4\r\nFormat profile                           : Base Media\r\nCodec ID                                 : isom\r\nFile size                                : 836 MiB\r\nDuration                                 : 1h 26mn\r\nOverall bit rate                         : 1 348 Kbps\r\nMovie name                               : HAMMER_HORROR\r\nGenre                                    : Horror\r\nWriting application                      : Lavf54.6.100\r\n\r\nVideo\r\nID                                       : 1\r\nFormat                                   : AVC\r\nFormat/Info                              : Advanced Video Codec\r\nFormat profile                           :   \r\nFormat settings, CABAC                   : No\r\nFormat settings, ReFrames                : 6 frames\r\nCodec ID                                 : avc1\r\nCodec ID/Info                            : Advanced Video Coding\r\nDuration                                 : 1h 26mn\r\nBit rate                                 : 1 212 Kbps\r\nWidth                                    : 720 pixels\r\nHeight                                   : 404 pixels\r\nDisplay aspect ratio                     : 16:9\r\nFrame rate mode                          : Constant\r\nFrame rate                               : 29.970 fps\r\nColor space                              : YUV\r\nChroma subsampling                       : 4:2:0\r\nBit depth                                : 8 bits\r\nScan type                                : Progressive\r\nBits/(Pixel*Frame)                       : 0.139\r\nStream size                              : 751 MiB (90%)\r\n\r\nAudio\r\nID                                       : 2\r\nFormat                                   : AAC\r\nFormat/Info                              : Advanced Audio Codec\r\nFormat profile                           : LC\r\nCodec ID                                 : 40\r\nDuration                                 : 1h 26mn\r\nBit rate mode                            : Constant\r\nBit rate                                 : 132 Kbps\r\nChannel(s)                               : 2 channels\r\nChannel positions                        : Front: L R\r\nSampling rate                            : 44.1 KHz\r\nCompression mode                         : Lossy\r\nStream size                              : 80.5 MiB (10%)","torrent":{"xt":"urn:btih:1294d02ddfba1f54f23ff07ec372c2f07c0ab3f8","amp;dn":"The+Evil+of+Frankenstein%281964%29MPEG-4%5BDaScubaDude%5D","amp;tr":["udp%3A%2F%2Ftracker.leechers-paradise.org%3A6969","udp%3A%2F%2Fzer0day.ch%3A1337","udp%3A%2F%2Fopen.demonii.com%3A1337","udp%3A%2F%2Ftracker.coppersurfer.tk%3A6969","udp%3A%2F%2Fexodus.desync.com%3A6969"],"infoHash":"1294d02ddfba1f54f23ff07ec372c2f07c0ab3f8","infoHashBuffer":{"type":"Buffer","data":[18,148,208,45,223,186,31,84,242,63,240,126,195,114,194,240,124,10,179,248]},"announce":[],"urlList":[]}}